<svg width="39" height="38" viewBox="0 0 39 38" fill="none" xmlns="http://www.w3.org/2000/svg">
<g clip-path="url(#clip0_1185_16)">
<path fill-rule="evenodd" clip-rule="evenodd" d="M19.4987 1.07837e-06C14.8671 -0.00153783 10.3861 1.64407 6.85811 4.6422C3.33009 7.64033 0.985392 11.7952 0.243806 16.3629C-0.497779 20.9307 0.412174 25.613 2.81075 29.5716C5.20932 33.5301 8.93989 36.5065 13.3345 37.9677C14.3032 38.1484 14.6649 37.5451 14.6649 37.029C14.6649 36.5644 14.6487 35.032 14.6391 33.4028C9.21431 34.5804 8.07124 31.1059 8.07124 31.1059C7.18327 28.8476 5.90458 28.254 5.90458 28.254C4.13508 27.0442 6.03697 27.07 6.03697 27.07C7.99698 27.2088 9.02703 29.0767 9.02703 29.0767C10.7675 32.0543 13.5896 31.1962 14.7004 30.6897C14.878 29.4315 15.3817 28.5734 15.9403 28.0863C11.6232 27.5991 7.05411 25.928 7.05411 18.4629C7.02512 16.5239 7.74567 14.6485 9.06578 13.2269C8.86235 12.7366 8.19395 10.7558 9.25306 8.0652C9.25306 8.0652 10.8902 7.54258 14.6165 10.0621C17.8137 9.18893 21.1869 9.18893 24.3842 10.0621C28.0911 7.55548 29.7411 8.0652 29.7411 8.0652C30.8003 10.7493 30.1351 12.7301 29.9316 13.2269C31.2481 14.6477 31.9663 16.5205 31.9369 18.4564C31.9369 25.9409 27.3775 27.5862 23.0345 28.0701C23.7319 28.6734 24.3551 29.8606 24.3551 31.6769C24.3551 34.2836 24.3358 36.3837 24.3358 37.0225C24.3358 37.5419 24.6845 38.1484 25.6726 37.9581C30.0609 36.4913 33.784 33.5132 36.1767 29.5561C38.5694 25.5989 39.4756 20.9207 38.7334 16.3574C37.9912 11.7941 35.6489 7.64322 32.1252 4.64663C28.6015 1.65005 24.1261 0.00304748 19.4987 1.07837e-06V1.07837e-06Z" fill="#231E1B"/>
<path d="M7.38312 27.9699C7.34114 28.0667 7.18938 28.0958 7.06022 28.0312C6.93106 27.9667 6.83742 27.8344 6.88262 27.7377C6.92783 27.6409 7.07959 27.6118 7.20553 27.6764C7.33146 27.7409 7.42833 27.8732 7.37989 27.9699H7.38312Z" fill="#231E1B"/>
<path d="M8.17469 28.8509C8.08105 28.938 7.90022 28.8961 7.77429 28.7606C7.71543 28.713 7.67698 28.6448 7.66677 28.5698C7.65657 28.4949 7.67539 28.4189 7.7194 28.3573C7.81627 28.2702 7.99064 28.3122 8.1198 28.4477C8.24896 28.5832 8.27156 28.7703 8.17469 28.8509Z" fill="#231E1B"/>
<path d="M8.94499 29.9734C8.82552 30.0573 8.62209 29.9734 8.50908 29.8056C8.39606 29.6379 8.3896 29.425 8.50908 29.3411C8.62855 29.2572 8.83198 29.3411 8.94499 29.5056C9.05801 29.6701 9.06447 29.8895 8.94499 29.9734V29.9734Z" fill="#231E1B"/>
<path d="M10.01 31.0573C9.97076 31.0857 9.92621 31.106 9.87899 31.117C9.83177 31.128 9.78283 31.1295 9.73504 31.1214C9.68724 31.1133 9.64153 31.0957 9.6006 31.0697C9.55966 31.0438 9.52432 31.0099 9.49662 30.9702C9.32548 30.8121 9.27705 30.5895 9.38684 30.4734C9.49662 30.3572 9.70974 30.3863 9.89056 30.5476C10.0714 30.7089 10.1101 30.9282 9.99712 31.0444L10.01 31.0573Z" fill="#231E1B"/>
<path d="M11.4506 31.6865C11.4022 31.8381 11.1859 31.9091 10.9631 31.8445C10.7403 31.78 10.5982 31.5993 10.6402 31.4445C10.6821 31.2896 10.9049 31.2187 11.1277 31.2864C11.3505 31.3542 11.4926 31.5316 11.4506 31.6865Z" fill="#231E1B"/>
<path d="M13.0434 31.8028C13.0434 31.9641 12.8626 32.0963 12.6301 32.0996C12.3976 32.1028 12.2103 31.977 12.2071 31.8157C12.2038 31.6544 12.3879 31.5221 12.6236 31.5189C12.8593 31.5156 13.0434 31.6447 13.0434 31.8028V31.8028Z" fill="#231E1B"/>
<path d="M14.5292 31.551C14.5582 31.7091 14.3968 31.8736 14.1675 31.9123C13.9383 31.951 13.7316 31.8575 13.7025 31.6994C13.6735 31.5413 13.8382 31.3768 14.0642 31.3381C14.2902 31.2994 14.5001 31.3929 14.5292 31.551Z" fill="#231E1B"/>
</g>
<defs>
<clipPath id="clip0_1185_16">
<rect width="39" height="38" fill="white"/>
</clipPath>
</defs>
</svg>
