<svg width="24" height="24" viewBox="0 0 24 24" fill="none" xmlns="http://www.w3.org/2000/svg">
<rect width="24" height="24" fill="white"/>
<path d="M21.2814 2.71856C18.99 0.427797 15.2753 0.427797 12.9845 2.71856L9.71078 5.99087C9.96998 5.96263 10.2318 5.95051 10.495 5.95051C11.3234 5.95051 12.1291 6.08218 12.8918 6.33585L14.7469 4.48156C15.384 3.84378 16.2313 3.49327 17.1323 3.49327C18.0335 3.49327 18.8807 3.84378 19.5177 4.48156C20.1549 5.11797 20.5053 5.96401 20.5053 6.86622C20.5053 7.76722 20.1549 8.61448 19.5177 9.25088L15.8883 12.8803C15.2511 13.5184 14.4039 13.8688 13.5029 13.8688C12.6005 13.8688 11.7546 13.5184 11.1168 12.8806C10.8067 12.5717 10.565 12.2118 10.3985 11.8197C9.98492 11.8426 9.59818 12.0145 9.30274 12.3097L8.33594 13.2778C8.60051 13.7678 8.94013 14.2297 9.3537 14.6449C11.6445 16.9357 15.3598 16.9357 17.651 14.6449L21.281 11.0141C23.5712 8.72346 23.5712 5.0095 21.2812 2.71869L21.2814 2.71856Z" fill="black"/>
<path d="M13.543 18.048C12.7132 18.048 11.8996 17.9137 11.1194 17.6491L9.25157 19.5169C8.61517 20.1547 7.76787 20.5052 6.86691 20.5052C5.96591 20.5052 5.12003 20.1549 4.48225 19.5169C3.84447 18.8804 3.49396 18.0332 3.49396 17.1323C3.49396 16.2313 3.84447 15.3838 4.48225 14.7462L8.11167 11.1168C8.74945 10.4804 9.59537 10.1299 10.4963 10.1299C11.3987 10.1299 12.2446 10.4804 12.8816 11.1168C13.1919 11.427 13.4341 11.7868 13.6014 12.1789C14.0163 12.1574 14.4037 11.9842 14.6991 11.6889L15.6645 10.7221C15.3999 10.2305 15.0596 9.76876 14.6454 9.35382C12.3546 7.06305 8.63921 7.06305 6.34841 9.35382L2.71899 12.9846C0.427004 15.2755 0.427004 18.9892 2.71899 21.2816C5.00975 23.5724 8.72356 23.5724 11.0144 21.2816L14.2825 18.0133C14.0388 18.036 13.7925 18.0483 13.5441 18.0483L13.543 18.048Z" fill="black"/>
</svg>
